<svg xmlns="http://www.w3.org/2000/svg" class="ytp-heat-map-svg" height="100%" preserveAspectRatio="none" version="1.1" viewBox="0 0 1000 100" width="100%" style="height: 40px;"><defs><clipPath id="15"><path class="ytp-heat-map-path" d="M 0.0,100.0 C 0.0,97.7 -16.7,90.7 0.0,88.3 C 16.7,86.0 33.3,90.2 83.3,88.3 C 133.3,86.5 183.3,79.4 250.0,79.0 C 316.7,78.6 350.0,88.0 416.7,86.5 C 483.3,85.0 516.7,77.2 583.3,71.5 C 650.0,65.9 683.3,56.2 750.0,58.4 C 816.7,60.7 866.7,77.8 916.7,82.7 C 966.7,87.5 983.3,79.2 1000.0,82.7 C 1016.7,86.2 1000.0,96.5 1000.0,100.0" fill="white"/></clipPath></defs><rect class="ytp-heat-map-graph" clip-path="url(#15)" fill="white" fill-opacity="0.2" height="100%" width="100%" x="0" y="0"/><rect class="ytp-heat-map-hover" clip-path="url(#15)" fill="white" height="100%" x="0" y="0"/><rect class="ytp-heat-map-play" clip-path="url(#15)" height="100%" x="0" y="0"/></svg>