<svg xmlns="http://www.w3.org/2000/svg" class="ytp-heat-map-svg" height="100%" preserveAspectRatio="none" version="1.1" viewBox="0 0 1000 100" width="100%" style="height: 40px;"><defs><clipPath id="13"><path class="ytp-heat-map-path" d="M 0.0,100.0 C 0.0,90.6 -16.7,62.3 0.0,52.8 C 16.7,43.4 33.3,47.5 83.3,52.8 C 133.3,58.2 183.3,74.9 250.0,79.5 C 316.7,84.2 350.0,75.3 416.7,76.1 C 483.3,76.8 516.7,87.0 583.3,83.3 C 650.0,79.6 683.3,60.5 750.0,57.4 C 816.7,54.3 866.7,65.7 916.7,67.7 C 966.7,69.8 983.3,61.3 1000.0,67.7 C 1016.7,74.2 1000.0,93.5 1000.0,100.0" fill="white"/></clipPath></defs><rect class="ytp-heat-map-graph" clip-path="url(#13)" fill="white" fill-opacity="0.2" height="100%" width="100%" x="0" y="0"/><rect class="ytp-heat-map-hover" clip-path="url(#13)" fill="white" height="100%" x="0" y="0"/><rect class="ytp-heat-map-play" clip-path="url(#13)" height="100%" x="0" y="0"/></svg>