<svg xmlns="http://www.w3.org/2000/svg" class="ytp-heat-map-svg" height="100%" preserveAspectRatio="none" version="1.1" viewBox="0 0 1000 100" width="100%" style="height: 40px;"><defs><clipPath id="7"><path class="ytp-heat-map-path" d="M 0.0,100.0 C 0.0,91.9 -6.3,67.6 0.0,59.4 C 6.3,51.3 12.5,57.0 31.3,59.4 C 50.0,61.9 68.8,75.3 93.8,71.6 C 118.8,68.0 131.3,47.2 156.3,41.1 C 181.3,35.0 193.8,41.0 218.8,41.1 C 243.8,41.1 256.3,43.5 281.3,41.3 C 306.3,39.1 318.8,34.3 343.8,30.1 C 368.8,25.9 381.3,17.6 406.3,20.3 C 431.3,23.0 443.8,38.8 468.8,43.5 C 493.8,48.2 506.3,42.1 531.3,43.8 C 556.3,45.5 568.8,57.0 593.8,52.1 C 618.8,47.2 631.3,16.4 656.3,19.3 C 681.3,22.3 693.8,58.7 718.8,66.9 C 743.8,75.0 756.3,65.6 781.3,60.1 C 806.3,54.6 818.8,40.1 843.8,39.5 C 868.8,39.0 881.3,58.7 906.3,57.4 C 931.3,56.2 950.0,38.1 968.8,33.2 C 987.5,28.4 993.8,19.8 1000.0,33.2 C 1006.3,46.6 1000.0,86.6 1000.0,100.0" fill="white"/></clipPath></defs><rect class="ytp-heat-map-graph" clip-path="url(#7)" fill="white" fill-opacity="0.2" height="100%" width="100%" x="0" y="0"/><rect class="ytp-heat-map-hover" clip-path="url(#7)" fill="white" height="100%" x="0" y="0"/><rect class="ytp-heat-map-play" clip-path="url(#7)" height="100%" x="0" y="0"/></svg>