<svg xmlns="http://www.w3.org/2000/svg" class="ytp-heat-map-svg" height="100%" preserveAspectRatio="none" version="1.1" viewBox="0 0 1000 100" width="100%" style="height: 40px;"><defs><clipPath id="11"><path class="ytp-heat-map-path" d="M 0.0,100.0 C 0.0,92.0 -12.5,68.1 0.0,60.1 C 12.5,52.1 25.0,57.0 62.5,60.1 C 100.0,63.1 137.5,74.4 187.5,75.3 C 237.5,76.2 262.5,68.5 312.5,64.4 C 362.5,60.2 387.5,53.7 437.5,54.4 C 487.5,55.1 512.5,71.3 562.5,67.9 C 612.5,64.6 637.5,43.4 687.5,37.6 C 737.5,31.9 762.5,33.7 812.5,39.3 C 862.5,44.9 900.0,60.4 937.5,65.6 C 975.0,70.9 987.5,58.7 1000.0,65.6 C 1012.5,72.5 1000.0,93.1 1000.0,100.0" fill="white"/></clipPath></defs><rect class="ytp-heat-map-graph" clip-path="url(#11)" fill="white" fill-opacity="0.2" height="100%" width="100%" x="0" y="0"/><rect class="ytp-heat-map-hover" clip-path="url(#11)" fill="white" height="100%" x="0" y="0"/><rect class="ytp-heat-map-play" clip-path="url(#11)" height="100%" x="0" y="0"/></svg>