<svg xmlns="http://www.w3.org/2000/svg" class="ytp-heat-map-svg" height="100%" preserveAspectRatio="none" version="1.1" viewBox="0 0 1000 100" width="100%" style="height: 40px;"><defs><clipPath id="12"><path class="ytp-heat-map-path" d="M 0.0,100.0 C 0.0,93.1 -5.9,72.5 0.0,65.6 C 5.9,58.7 11.8,64.3 29.4,65.6 C 47.1,66.9 64.7,71.8 88.2,72.2 C 111.8,72.5 123.5,66.3 147.1,67.3 C 170.6,68.4 182.4,79.3 205.9,77.3 C 229.4,75.3 241.2,64.0 264.7,57.4 C 288.2,50.9 300.0,45.6 323.5,44.5 C 347.1,43.4 358.8,48.5 382.4,52.1 C 405.9,55.8 417.6,63.1 441.2,62.7 C 464.7,62.2 476.5,52.0 500.0,49.8 C 523.5,47.7 535.3,58.6 558.8,52.1 C 582.4,45.6 594.1,25.8 617.6,17.3 C 641.2,8.8 652.9,6.4 676.5,9.5 C 700.0,12.6 711.8,23.8 735.3,33.0 C 758.8,42.2 770.6,50.0 794.1,55.5 C 817.6,61.1 829.4,57.4 852.9,60.6 C 876.5,63.8 888.2,73.0 911.8,71.5 C 935.3,69.9 952.9,56.6 970.6,52.8 C 988.2,49.1 994.1,43.4 1000.0,52.8 C 1005.9,62.3 1000.0,90.6 1000.0,100.0" fill="white"/></clipPath></defs><rect class="ytp-heat-map-graph" clip-path="url(#12)" fill="white" fill-opacity="0.2" height="100%" width="100%" x="0" y="0"/><rect class="ytp-heat-map-hover" clip-path="url(#12)" fill="white" height="100%" x="0" y="0"/><rect class="ytp-heat-map-play" clip-path="url(#12)" height="100%" x="0" y="0"/></svg>