<svg xmlns="http://www.w3.org/2000/svg" class="ytp-heat-map-svg" height="100%" preserveAspectRatio="none" version="1.1" viewBox="0 0 1000 100" width="100%" style="height: 40px;"><defs><clipPath id="10"><path class="ytp-heat-map-path" d="M 0.0,100.0 C 0.0,90.5 -7.7,61.9 0.0,52.4 C 7.7,42.8 15.4,47.6 38.5,52.4 C 61.5,57.1 84.6,78.4 115.4,76.0 C 146.2,73.6 161.5,48.7 192.3,40.4 C 223.1,32.1 238.5,34.0 269.2,34.6 C 300.0,35.1 315.4,39.4 346.2,43.3 C 376.9,47.2 392.3,55.0 423.1,54.0 C 453.8,52.9 469.2,44.1 500.0,38.0 C 530.8,31.9 546.2,31.1 576.9,23.5 C 607.7,15.9 623.1,-1.1 653.8,0.0 C 684.6,1.1 700.0,21.0 730.8,28.8 C 761.5,36.5 776.9,35.1 807.7,38.7 C 838.5,42.4 853.8,42.9 884.6,47.1 C 915.4,51.4 938.5,57.5 961.5,60.1 C 984.6,62.7 992.3,52.1 1000.0,60.1 C 1007.7,68.1 1000.0,92.0 1000.0,100.0" fill="white"/></clipPath></defs><rect class="ytp-heat-map-graph" clip-path="url(#10)" fill="white" fill-opacity="0.2" height="100%" width="100%" x="0" y="0"/><rect class="ytp-heat-map-hover" clip-path="url(#10)" fill="white" height="100%" x="0" y="0"/><rect class="ytp-heat-map-play" clip-path="url(#10)" height="100%" x="0" y="0"/></svg>