<svg xmlns="http://www.w3.org/2000/svg" height="100%" mlns="http://www.w3.org/2000/svg" viewBox="0 0 24 24" width="100%"><path class="ytp-circle-arrow ytp-svg-fill" d="m19,12c0,2.1 -0.93,4.07 -2.55,5.4c-1.62,1.34 -3.76,1.87 -5.86,1.46c-2.73,-0.53 -4.92,-2.72 -5.45,-5.45c-0.41,-2.1 .12,-4.24 1.46,-5.86c1.33,-1.62 3.3,-2.55 5.4,-2.55l1.27,0l-0.85,.85l1.41,1.41l3.35,-3.35l-3.35,-3.35l-1.41,1.41l1.01,1.03l-1.43,0c-2.7,0 -5.23,1.19 -6.95,3.28c-1.72,2.08 -2.4,4.82 -1.88,7.52c0.68,3.52 3.51,6.35 7.03,7.03c0.6,.11 1.19,.17 1.78,.17c2.09,0 4.11,-0.71 5.74,-2.05c2.09,-1.72 3.28,-4.25 3.28,-6.95l-2,0z"/><text class="ytp-jump-button-text ytp-svg-fill" x="7.05" y="15.05">10</text></svg>