<svg xmlns="http://www.w3.org/2000/svg" height="100%" mlns="http://www.w3.org/2000/svg" viewBox="0 0 24 24" width="100%"><path class="ytp-circle-arrow ytp-svg-fill" d="m18.95,6.28c-1.72,-2.09 -4.25,-3.28 -6.95,-3.28l-1.43,0l1.02,-1.02l-1.41,-1.41l-3.36,3.35l3.35,3.35l1.41,-1.41l-0.85,-0.86l1.27,0c2.1,0 4.07,.93 5.4,2.55c1.34,1.62 1.87,3.76 1.46,5.86c-0.53,2.73 -2.72,4.92 -5.45,5.45c-2.11,.41 -4.24,-0.12 -5.86,-1.46c-1.62,-1.33 -2.55,-3.3 -2.55,-5.4l-2,0c0,2.7 1.19,5.23 3.28,6.95c1.62,1.34 3.65,2.05 5.74,2.05c0.59,0 1.19,-0.06 1.78,-0.17c3.52,-0.68 6.35,-3.51 7.03,-7.03c0.52,-2.7 -0.17,-5.44 -1.88,-7.52z"/><text class="ytp-jump-button-text ytp-svg-fill" x="6.5" y="15">10</text></svg>