<svg xmlns="http://www.w3.org/2000/svg" class="ytp-heat-map-svg" height="100%" preserveAspectRatio="none" version="1.1" viewBox="0 0 1000 100" width="100%" style="height: 40px;"><defs><clipPath id="8"><path class="ytp-heat-map-path" d="M 0.0,100.0 C 0.0,86.6 -12.5,46.6 0.0,33.2 C 12.5,19.8 25.0,27.3 62.5,33.2 C 100.0,39.1 137.5,54.6 187.5,62.7 C 237.5,70.8 262.5,76.5 312.5,73.8 C 362.5,71.0 387.5,54.6 437.5,48.9 C 487.5,43.2 512.5,45.0 562.5,45.3 C 612.5,45.5 637.5,49.4 687.5,50.0 C 737.5,50.7 762.5,51.6 812.5,48.5 C 862.5,45.3 900.0,37.0 937.5,34.1 C 975.0,31.3 987.5,21.0 1000.0,34.1 C 1012.5,47.3 1000.0,86.8 1000.0,100.0" fill="white"/></clipPath></defs><rect class="ytp-heat-map-graph" clip-path="url(#8)" fill="white" fill-opacity="0.2" height="100%" width="100%" x="0" y="0"/><rect class="ytp-heat-map-hover" clip-path="url(#8)" fill="white" height="100%" x="0" y="0"/><rect class="ytp-heat-map-play" clip-path="url(#8)" height="100%" x="0" y="0"/></svg>