<svg xmlns="http://www.w3.org/2000/svg" class="ytp-heat-map-svg" height="100%" preserveAspectRatio="none" version="1.1" viewBox="0 0 1000 100" width="100%" style="height: 40px;"><defs><clipPath id="14"><path class="ytp-heat-map-path" d="M 0.0,100.0 C 0.0,93.5 -14.3,74.2 0.0,67.7 C 14.3,61.3 28.6,64.1 71.4,67.7 C 114.3,71.4 157.1,86.6 214.3,85.9 C 271.4,85.2 300.0,67.2 357.1,64.4 C 414.3,61.7 442.9,75.3 500.0,72.2 C 557.1,69.2 585.7,56.6 642.9,49.1 C 700.0,41.7 728.6,27.2 785.7,35.0 C 842.9,42.9 885.7,77.7 928.6,88.3 C 971.4,99.0 985.7,86.0 1000.0,88.3 C 1014.3,90.7 1000.0,97.7 1000.0,100.0" fill="white"/></clipPath></defs><rect class="ytp-heat-map-graph" clip-path="url(#14)" fill="white" fill-opacity="0.2" height="100%" width="100%" x="0" y="0"/><rect class="ytp-heat-map-hover" clip-path="url(#14)" fill="white" height="100%" x="0" y="0"/><rect class="ytp-heat-map-play" clip-path="url(#14)" height="100%" x="0" y="0"/></svg>