<svg xmlns="http://www.w3.org/2000/svg" class="ytp-heat-map-svg" height="100%" preserveAspectRatio="none" version="1.1" viewBox="0 0 1000 100" width="100%" style="height: 40px;"><defs><clipPath id="6"><path class="ytp-heat-map-path" d="M 0.0,100.0 C 0.0,92.1 -11.1,68.5 0.0,60.6 C 11.1,52.7 22.2,66.1 55.6,60.6 C 88.9,55.2 122.2,38.2 166.7,33.4 C 211.1,28.6 233.3,36.0 277.8,36.6 C 322.2,37.2 344.4,38.6 388.9,36.3 C 433.3,33.9 455.6,22.9 500.0,24.7 C 544.4,26.6 566.7,40.2 611.1,45.6 C 655.6,51.0 677.8,54.1 722.2,51.7 C 766.7,49.2 788.9,32.0 833.3,33.5 C 877.8,35.1 911.1,54.3 944.4,59.4 C 977.8,64.6 988.9,51.3 1000.0,59.4 C 1011.1,67.6 1000.0,91.9 1000.0,100.0" fill="white"/></clipPath></defs><rect class="ytp-heat-map-graph" clip-path="url(#6)" fill="white" fill-opacity="0.2" height="100%" width="100%" x="0" y="0"/><rect class="ytp-heat-map-hover" clip-path="url(#6)" fill="white" height="100%" x="0" y="0"/><rect class="ytp-heat-map-play" clip-path="url(#6)" height="100%" x="0" y="0"/></svg>