<svg xmlns="http://www.w3.org/2000/svg" class="ytp-heat-map-svg" height="100%" preserveAspectRatio="none" version="1.1" viewBox="0 0 1000 100" width="100%" style="height: 40px;"><defs><clipPath id="9"><path class="ytp-heat-map-path" d="M 0.0,100.0 C 0.0,86.8 -16.7,47.3 0.0,34.1 C 16.7,21.0 33.3,28.3 83.3,34.1 C 133.3,39.9 183.3,57.0 250.0,63.1 C 316.7,69.2 350.0,67.1 416.7,64.6 C 483.3,62.0 516.7,54.1 583.3,50.4 C 650.0,46.6 683.3,45.5 750.0,45.9 C 816.7,46.3 866.7,51.1 916.7,52.4 C 966.7,53.6 983.3,42.8 1000.0,52.4 C 1016.7,61.9 1000.0,90.5 1000.0,100.0" fill="white"/></clipPath></defs><rect class="ytp-heat-map-graph" clip-path="url(#9)" fill="white" fill-opacity="0.2" height="100%" width="100%" x="0" y="0"/><rect class="ytp-heat-map-hover" clip-path="url(#9)" fill="white" height="100%" x="0" y="0"/><rect class="ytp-heat-map-play" clip-path="url(#9)" height="100%" x="0" y="0"/></svg>