<svg xmlns="http://www.w3.org/2000/svg" class="ytp-heat-map-svg" height="100%" preserveAspectRatio="none" version="1.1" viewBox="0 0 1000 100" width="100%" style="height: 40px;"><defs><clipPath id="5"><path class="ytp-heat-map-path" d="M 0.0,100.0 C 0.0,95.2 -9.1,80.7 0.0,75.9 C 9.1,71.0 18.2,83.2 45.5,75.9 C 72.7,68.5 100.0,47.2 136.4,39.2 C 172.7,31.1 190.9,42.6 227.3,35.6 C 263.6,28.5 281.8,-0.5 318.2,4.1 C 354.5,8.7 372.7,44.4 409.1,58.5 C 445.5,72.6 463.6,71.2 500.0,74.4 C 536.4,77.7 554.5,74.3 590.9,74.7 C 627.3,75.1 645.5,82.2 681.8,76.4 C 718.2,70.5 736.4,47.0 772.7,45.3 C 809.1,43.6 827.3,64.9 863.6,68.0 C 900.0,71.1 927.3,62.1 954.5,60.6 C 981.8,59.1 990.9,52.7 1000.0,60.6 C 1009.1,68.5 1000.0,92.1 1000.0,100.0" fill="white"/></clipPath></defs><rect class="ytp-heat-map-graph" clip-path="url(#5)" fill="white" fill-opacity="0.2" height="100%" width="100%" x="0" y="0"/><rect class="ytp-heat-map-hover" clip-path="url(#5)" fill="white" height="100%" x="0" y="0"/><rect class="ytp-heat-map-play" clip-path="url(#5)" height="100%" x="0" y="0"/></svg>